# xmcd CD database file
#
# Track frame offsets:
#	150
#	8850
#	19950
#	34820
#	45952
#	58605
#	68547
#	85545
#	102175
#	117835
#	129532
#	146262
#	160005
#	175200
#	195120
#	215322
#	230067
#	246922
#	260670
#	272207
#	282532
#	296272
#	311337
#	326827
#	340885
#
# Disc length: 4696 seconds
#
# Revision: 0
# Processed by: cddbd v1.5.2PL0 Copyright (c) Steve Scherf et al.
# Submitted via: CDex 1.70beta2
#
DISCID=5f125619
DTITLE=Fešáci - Pošta
DYEAR=1900
DGENRE=Country
TTITLE0=Pošta Fešáci
TTITLE1=Strašidelný vlak
TTITLE2=Od ní
TTITLE3=Závlačka je holka malá
TTITLE4=Neboj lásko
TTITLE5=Podzimní zpráva
TTITLE6=Šéfe
TTITLE7=Muž s hlasem medovým
TTITLE8=První vlak
TTITLE9=Vlak 30-50
TTITLE10=Má ráda máj
TTITLE11=Paměti
TTITLE12=Písně vlaků
TTITLE13=Suzy
TTITLE14=Cesty domů
TTITLE15=Country bál
TTITLE16=Hvězda countryon
TTITLE17=Rychlík ze stanice mládí
TTITLE18=Káva, chito, kofola
TTITLE19=Zimní dívka
TTITLE20=Nás šest a Klára
TTITLE21=Phoenix
TTITLE22=Pražce
TTITLE23=Pět stromů
TTITLE24=Písnička o cestách
EXTD=
EXTT0=
EXTT1=
EXTT2=
EXTT3=
EXTT4=
EXTT5=
EXTT6=
EXTT7=
EXTT8=
EXTT9=
EXTT10=
EXTT11=
EXTT12=
EXTT13=
EXTT14=
EXTT15=
EXTT16=
EXTT17=
EXTT18=
EXTT19=
EXTT20=
EXTT21=
EXTT22=
EXTT23=
EXTT24=
PLAYORDER=
